<svg xmlns="http://www.w3.org/2000/svg" viewBox="0 0 1637.36 936.94"><defs><style>.cls-1{opacity:0.36;}.cls-2,.cls-3,.cls-4{fill:none;stroke:#fff;stroke-linecap:round;}.cls-2{stroke-opacity:0.51;}.cls-3{stroke-width:2px;}.cls-4{stroke-width:6px;}</style></defs><title>Asset 1</title><g id="Layer_2" data-name="Layer 2"><g id="Layer_1-2" data-name="Layer 1"><g class="cls-1"><path class="cls-2" d="M598.24,583.19c-2.27-1.35-5.49-3.15-9-4.92m-18.49-6.58c-4,.23-9.78.37-15,1.09m15-1.09-15,1.09m15-1.09c3.91-.22,11.71,3.13,18.49,6.58m-44-1.89c-2.51,2.43-9.18,7.47-14.68,13.37m14.68-13.37-14.68,13.37m14.68-13.37c2-1.92,6-3,10.5-3.6M531.59,674c-2.2-1.89-1.61-8.76-2.41-13.14s-6.54-17.41-8.46-19.79c-.94-1.17-1-7.73-.59-15.38M531.59,674c1.76,1.51,6.36,3.78,8.44,4.73Zm-1-84.29c-3.88,4.16-7.18,8.75-8,13.15-.34,1.78-.68,4-1,6.41m9-19.56,8.44,4.73m16.74-21.7-.63-10.49m34.09,16c1.17-4.41,3.53-14,3.68-17,0-.37,0-.81.07-1.29m.84-12-17.65,1.22M593.85,548,593,560m.84-12c-.2,2.68-.61,8.18-.82,11.64m0,.31a3,3,0,0,0,0-.31m0,0,14.86.55m0,0,1.27,0,3.2.12Zm8,21.78L634,583m11.6.64-.19,14.29m.19-14.29L634,583m11.6.64.85-6.72m4.12-32.37-11.53-3.85m11.53,3.85-2.25,17.71m2.25-17.71,11.26,4.36L660,560.28m-9.43-15.76c1.77-3.15,5.11-9.56,4.32-10S642.23,530,636.38,528l-3.76,9,6.45,3.62m0,0c-1.41,11-4.25,33.37-4.39,34.56m0,0c-.15,1.18-.5,5.65-.65,7.74m.65-7.74-.5-.28m-.15,8c-.56,4.85-1.32,11.23-2.14,17.8m14.59-23.88L634.18,575m12.3,1.94,39.68,6.57m-39.68-6.57,1.87-14.66M634.18,575l-19.13-2m71.11,10.47L679.8,604.1c-4.65,9.82-14.69,30.36-17.72,33.9s-33.78-4.13-48.78-8.41l5-29.89,13.56,1.07m54.27-17.31-12.87-2.64,3.36-16.44m9.51,19.08,9.08-17.16m1.6-3-1.6,3m-18.59-1.92,18.59,1.92m-18.59-1.92L660,560.28m0,0L658,565l-9.66-2.81m-53.17-93.31c1.61,5.27,5.41,16.39,7.75,18.75,2.91,2.94,10.69,15.81,19,18.49s35.47,14.68,42.7,18.08c6.54,3.08,23.36,9.78,30.25,11.19m68.46,107c2.45-3.21-7.94-25.39-12-30.94-2.5-3.43-9.12-11.9-14.13-19m26.13,49.92c-2.46,3.2-13,15-15.3,15.63a16.86,16.86,0,0,1-2.72.25m18-15.88,9.42,5.29m-59.22-7.24a84.61,84.61,0,0,1,8.21,2.82c2,1.11-.69,14,.3,14.57.83.46,16.62.74,23.27.44m-31.78-17.83c-4.54-1.43-9.93-3-13.38-4.06Zm0,0L717.7,611c1.09-5.05,3.65-15.35,5.12-16.1l3.66-1.87,2,1.11,4.91-6.41,3.81,4.84m0,0c-3.12-4.4-5.61-8.27-6.11-10-1.3-4.66-4-23.17-4.05-26.49s-4.81-11.2-10.2-15.54-15.07-4.53-20.16-4.77a11.68,11.68,0,0,1-1.81-.26m-116,147.45-9.37,24.84L596.58,721c1.65-4.09,5.33-13,6.89-15.76,2-3.48,4.94-22.75,5.9-26.79.15-.6.6-2,1.29-3.86m-31.84,8.31-5.35-31.14,1.95-3.49,10.36,7.12,5.8-9.17-11.47-5.13m-1.29,41.81L600,673.14l10.71,1.43m0,0c3.93-10.94,15.31-39.66,16.5-41.78.77-1.38,2.9-17.19,4.73-32M576.06,505.3l-10.48,5.9-7,2,.49,10.75-10,2.63L543.75,499l-9.09,3.4.19,5.44m-18,.66.52,4m.52,4,1.65,12.7,15.94-2.83-.47-13.15m-17.12,3.28,17.12-3.28m-17.12,3.28-.52-4m17.64.76-.2-5.45m0,0-17.44,4.69M422.88,713.14c6.59.35,16.64.84,25.44,1.19m59.94-1c-.5-.28-1.71-1.61-6-2.07-2.17-.23-10.34.49-18.37,1.34m24.39.73c.49.28.12,7.92.83,9s14,.65,17.24,1.82,7.29,2.13,10.21,5.07c2.33,2.36,5.66-1.18,7-3.24l18.7-1.94c7.86,4.2,24.05,12.71,25.86,13.21.32.08.73-.16,1.21-.64m-81.09-23.26c3,.4,9.32,1.05,10.17.48s1.14-9.4,1.18-13.74l10-.3M632.49,845.31c.71-6.5,2-17,2.39-21.69.59-6.86.6-27.8.32-37.77-.12-4.25-1.53-13.13-3.15-22.05m.44,81.51a51.35,51.35,0,0,0-.47,5.5C632.19,851.43,632.4,847.4,632.49,845.31Zm-40.24-62,1.31,6.95m1.32,7-1.32-7m0,0L577,793.09c2.77,17.92,8.8,54.29,10.74,56.42,2.42,2.66,9.89,11.44,13.64,12.89a63.88,63.88,0,0,1,12.38,7m0,0a5.12,5.12,0,0,1,1.23,1.28C615.73,872.16,614.47,870.45,613.75,869.41ZM489.22,773.94c-1-.56-17.52-1.33-22.88-1.07-.73,0-2.11.18-3.95.4m26.83.67c.88.49,18.13,9.66,22.83,14m-22.83-14,1.65-7.59c-4.37-2.67-13.68-7.94-15.94-7.63-2.82.38-20.13-.18-21,1.32-.67,1.19.29,10,.86,14.22m57.22,13.65a3.84,3.84,0,0,1,1.14,1.44C513.89,791.84,512.72,789.42,512.05,787.91Zm-57.22-13.65c-10.09,1.39-24.12,3.48-32.38,4.73-6.74,2.33-20.63,7-22.27,7.13-2.05.16-1.46,3.77-2.23,4-.62.17-15.83,2.24-23.36,3.25m80.24-19.1c2.93-.4,5.53-.74,7.56-1m0,0c1.2,4,3.49,12,3,12.83a15.11,15.11,0,0,0-.8,2.17c-.38,1.18-.77,2.53-1,3.37M424.54,752l-50-3.87,0,16.23m0,29,0-29m0,29c-.26,3.56-1.37,11.27-3.72,13.61-2.95,2.93-12.6,7.33-13.44,8.82L351,827.24m23.53-62.85c-13.35,2.29-37.85,6.52-46.25,8m0,0-2.91.53A24.51,24.51,0,0,0,328.29,772.4ZM352.18,767l.39-5.35m.39-5.34-.39,5.34m0,0-11.87.21.9,7.71L340,759.7m-1.32-8.1.47,2.88m0,0,.47,2.88.38,2.34m-.85-5.22.85,5.22m11,67.54-.84,1.49ZM230,743c-1,6.42-3,19.77-3.11,21.81-.12,2.55-2.08,6-.09,7.14S237,777,238.26,777s17.65-1.22,18.08.34c.31,1.08,4.32,27.84,7.65,44.2m61.36,9.53c-20.64,1.42-55.7,3.63-57.77,3-.83-.27-2.15-5.41-3.59-12.49m61.36,9.53,4.07-.28ZM264,821.58l-49.19.76m-17.77.27,2.27,0,2.27,0m0,0,2.66,0,2.67,0,7.9-.12m-13.23.2,13.23-.2m536.27-216.2,19,2.17m0,0c.43,6.12,1.13,16.26,1.72,24.9m-1.72-24.9,3.33-31.51,9.42,5.29m-10.1,65.66c.32,5.94-1.18,32.71-2,45.36l-6.85-.58-3.07-5-19.23-2.94,3.68-26.26m27.44-10.59,12.69-4m-12.69,4c-.13-2.53-.5-8.12-.93-14.54m0,0c1.6-2.06,5-6.9,5.47-9.74.65-3.56,3.61-37.89,5.56-41.38m0,0c2-3.48,8.66-15.42,26.9-13,14.58,1.91,25.34,2.88,28.9,3.13l1.79,15.41,5,1.51m0,0,2.51-4.48,9.18-.08.65,12.79m-12.34-8.23,1.54,10m10.8-1.8-10.8,1.8m10.8-1.8,16.47,2,.75,4.18m-28-4.43-5.08,10.23m35.35,6.75-.75-4.18m0,0-.75-4.18-.75-4.19m1.5,8.37-1.5-8.37M769.16,486.74c-4.39.88-12.74,2.76-15.92,4.14m15.92-4.14,17.4,3.87-3.33,10.57m-14.07-14.44,13.65-29,5,1.52c.93-1.67,2.67-4.77,4.19-7.47m-45.95,58.62c.33-3.3,1-10.16,1-11.18.07-1.28,3.36-6,5-7.69a3.83,3.83,0,0,1,1.14-.67m-7.16,19.54-4.59,0,.71-9.41c2.29.19,7.21.64,8.62.91a4.26,4.26,0,0,1,2.92,3c.22.77-1.31,5.81-1.59,6.31S748,510.85,746.08,510.42Zm7.16-19.54,0-23.52,6.2-1.76m0,0a17.19,17.19,0,0,1-.46-6.15,5,5,0,0,1,3.5-3.92l5,2.79m-8,7.28a15,15,0,0,0,5.09.24m2.91-7.52c-.45,2.36-1.67,7.17-2.91,7.52m2.91-7.52,5.8,1.29c-1.25,3-3.95,8.9-4.75,8.46l-4-2.23m2.12,34.56A21,21,0,0,1,773,502c1.59.9,7.48-.16,10.23-.79m0,0L782,505.71m0,0-13.18,3.73-2.45,3.2c1.18.23,4,.8,5.8,1.3s5.71,3,7.44,4.17a65.26,65.26,0,0,1,3.28,5.77M782,505.71,787.66,520l-4.78,3.86m0,0c.18.62-1.7,1.88-2.66,2.43m0,0-3.37-1.47m3.37,1.47-3,6.93m-.42-8.4-7.11-3.1.18,17.11,4.59,0,2.79-5,0-.6m-.42-8.4.42,8.4M794,448.32a97,97,0,0,0,4.6-10.51c1.27.06,4.47.16,7.13.08M794,448.32l-2,3.48m2-3.48c2-.16,6.3-.52,6.92-.7s3.46-6.56,4.81-9.73m0,0c1.68-.05,3.86-1,5.94-1.9m7.67-.28c0-.42-.44-1.29-2.48-1.39-1.25-.06-3.17.79-5.19,1.67m7.67-.28.34,8.7c-3.89,4.2-9.76,10.48-14.65,15.59m14.31-24.29c.5-1.81-2.45-5.3-4-6.82M800,456.26a36.58,36.58,0,0,0-3.45,2.64c-1.33,1.22-.44,8.92-.22,9.7.09.3,3.92-3.58,8.71-8.6m-5-3.74L792,451.8m7.94,4.46,5,3.74m-5-3.74c3.71-4.68,11.44-14.12,12.68-14.47s-.15-4-1-5.8m3.68-7.1c-2.59.73-8,2.18-9,2.13a25.43,25.43,0,0,1-6.29-1.57l-3.48-1.95,1-4m17.83,5.43c-.58-2.07-2.14-6.43-3.72-7.32m0,0-12.9-7.24-1.21,9.13m14.11-1.89-1.12,2-13-.1m10.85-169.28-23.68-2m12.08-21.53a102.07,102.07,0,0,1,10.67.75m-10.67-.75,10.67.75m-10.67-.75c-1.49,0-9.46,4.12-18.13,8.8m28.8-8.05,2.49-9.07-.13-2.69m-24.29,17.12-.41,7.71m-.41,7.71-10.59-.89-3.29,4.7-10.92-6.12c4.89-2.79,12-6.79,18.75-10.42m6,12.73.41-7.71m0,0-5.54-.58-.92-4.44m54.71-32.12-15.81-20.65-8.75,12.1.26,5.39m24.3,3.16.93,13.62.35,5.1m-1.28-18.72,1.28,18.72m.35,5.11-.35-5.11m-25.09-11.8,6-1.88m-6,1.88.26,5.39m-.26-5.39L809,204.18m.75,15.47L809,204.18m56.77,1.1.94-29.57,10.45,0,1.74-4.26,30.67-7,1.91-33.61,7.27-.16m41-.91.44,58.48,0,3.94m-.47-62.42-19.81.44m19.81-.44c9.21-.51,28.09-1.91,30-3.45s3.23-1.9,3.66-1.88c6.14,3,28.79,8.44,70.3,6.09,51.89-2.94,85.35-4.45,86.35-3.89.79.45.27,35.93-.08,53.61l-.35,23.37M960.27,202l0-3m0-6.9,0,3.94,0,3m0-6.9,0,6.9m-41.47-68.41L918.13,162l9.22-6,1.43-8.36,6.14-.48-.53,5.59,5.53-22.63m-21.14.47,21.14-.47m208.61,146.74,117-10.88m-117,10.88-28.14,1.22m28.14-1.22.91-61.65M1305.29,351c-15.81,2.85-30.58,5.35-33,5.24-5.09-.24-18.08-.33-22.67-.29-.55,0-1.48.06-2.7.15m58.32-5.1c11.28-2,23.09-4.24,31.31-5.81Zm0,0c-1.06-10.13-3-30.85-2.55-32.66a6.18,6.18,0,0,0-.31-4.1m0,0-11.64,1-6.58.56m18.22-1.55-18.22,1.55m-5.07.43,2.74-.24,2.33-.19M1247,356.1c-9,.7-34.48,3.71-44.29,6.85-11.14,3.56-59.06,8.73-71.83,9.42-1.86.09-5.73.47-11,1M1247,356.1V330.87m0-13.09,15.38-1.84c1.15-16.37,3.39-49.27,3.21-49.89M1247,317.78c-40.48-2.66-122.29-7.39-125.67-5.1m125.67,5.1v13.09m18.58-64.82c-.21-.78,25.25-5.46,27.36-6.9s-1.41-44-2.12-45m0,0c-.72-1.06,1-5.31,2.14-7.31s-.83-19.44,0-20.93c.67-1.2,21-17.24,31-25.11l-52.57,6.49-4.15-19.34,3.34-5.32,7.46-11.86,2.35-3.74m10.37,87.12c-54.8,8.51-168.55,26.2-185.2,28.9-5.88.95-14.15,2-23.87,3m203.8-127.14-1.37,2.18m0,0-1.37,2.18-2.36,3.75m3.73-5.93-3.73,5.93M958.59,205c-.91,11.71-2.06,35.75.67,38.33,3.25,3.07-2.75,11,30.35,9.84m29.66,47.4a71.89,71.89,0,0,0,1.54-18.11l24.89-1.08m-26.43,19.19a23.87,23.87,0,0,1-2.19,6c-4.47,8-3.93,59.31-4.33,62.35-.32,2.44,1.68,12.51,2.72,17.23,19.36-2.46,50.51-6.38,75.74-9.41m-71.94-76.14c17.3,2.65,44,6.54,65.77,9.27m36.24,2.83-1.46,60.73m1.46-60.73-.89-34.53m.89,34.53c-1.58,1.08-17-.42-36.24-2.83m34.78,63.56c-7.33.79-17.38,2-28.61,3.31m29.18-98.57-40.07,1.74m1.39-33.86c-10,1.06-21.52,2.12-33.57,3.13m33.57-3.13L1081,263m-.7,16.93-34.62,1.5m34.62-1.5L1081,263m-35.32,18.43,2.44-32.23m0,0c-17.68,1.47-36.47,2.8-53.15,3.76-1.9.11-3.69.2-5.38.26M1081,263l2.32-.36m0,0,3.75-.58,3.57-.55Zm-103.5-59.4L1039.6,206m0,0-.63,23.21m.63-23.21,20.47-.44m89.54-1.94-.17,11.68m.17-11.68-72.36,1.57m-87.93,33.45.29,14.56m98.68,46.22L1085,309.85m9.31,53.15-3.14,13.72m166.56-45.67-10.81-.18m-87.74-116-9.78.4m-72.4-19,.21,8.93m0,0-17.18.37m.49,9.59-.49-9.59m324.51-53.94-6.25-49.31c23.85-4.51,73.15-14.31,79.62-17.48,5.41-2.65,51.22-19.32,81.41-30m26.53-8.92c-.33-.19-11.49,3.61-26.53,8.92m26.53-8.92c.84.47,5.37,15.21,6,21.7m-6-21.7c1.67-1,5.11-3.29,5.56-4.09.55-1,0-5.87.37-7.64.27-1.41,8.8-4.44,13-5.77m-19.67,94.31c-2.25.31-14.65,6-20.56,8.75,10.38,3.2,31.47,9,32.81,6.63.8-1.42-.6-10-2.41-19m-9.84,3.57c2.26-.3,7.5-2.5,9.84-3.57m-9.84,3.57-3.81-10.64m13.65,7.07c-2-9.76-4.45-19.86-5-21.23-1.15-2.6.69-24.47,1.87-27.74a6.73,6.73,0,0,0,.07-2.57m-29.56-4.16-3-8.62m25.8,14.47,6.75-1.69M1599.22.5l-4.12,1.62M1564.91,14l4.8-1.88m14.41-5.65.77,5.66m-.77-5.66-14.41,5.65m14.41-5.65,11-4.31m-25.39,10,25.39-10m-93.46,23.45,6.17,14.58m0,0,6.93-3.63,6.36-3.34m-13.29,7,13.29-7m.57-.3-.57.3m-823,759.18c.9-2.77,12.26-5.56,14.3-5.72,1.64-.13,10.78,2.12,15.14,3.26l-5.78,34.71c-7.09-.93-21.38-2.84-21.77-3.06l-10.42-5.85c.86-1.91,2.63-5.85,2.85-6.25S697.19,795.12,698.09,792.36Zm0,0-6.45-3.62M589.35,736.55c2.87-2.9,8-14.58,8.22-15,.13-.22,6.07,3,12.59,6.64m-20.81,8.37c2.38,2.77,5.67,6.49,9.07,10.22m32.46,10.74c-2,.67-5.07,1.61-8.08,2.4m8.08-2.4c-.31-1.61-.61-3.19-.91-4.7m.91,4.7c.08.39.15.78.22,1.17m-14.56-8.17-.62,2.27,5.74,2.57m0,0,1.14,4.56m-1.14-4.56,8.31-2.54m-7.17,7.1c-3.78,1-7.51,1.75-9.08,1.45-1.86-.36-8.79-7.47-15.3-14.59m31.55,6c-.05-.24-.09-.49-.14-.73m14.44-5.64-14.44,5.64m0,0c-1.42-7.19-2.6-12.74-2.77-13.33-.24-.86-9-6.09-16.9-10.57M641.51,756l1.51,5.43-11,2.35m0,0q-.46-2.58-.95-5.12m10.52-2.86-10.52,2.86m-20.94-30.5-5.87,9.29m-5.87,9.3,5.87-9.3m-5-3.85,5,3.85M449.92,702.15l-1.6,12.18m0,0c4,.17,7.81.3,10.87.37m14.9-21.9.74,16.12-15.82.29.18,5.49m0,0a66.38,66.38,0,0,0,7.2,0c1.78-.3,9.57-1.26,17.48-2.1M461.18,696l0,1.32,0,2.31m0,0,0,2.31,0,2Zm13.62,3.39,7.63.36,1.38,9.15m13-84.82,23.23-2m0,0c.29-5.44.83-11.42,1.47-16.42m-8.72-.74,8.72.74M694,521.78l.82,13.65"/><path class="cls-3" d="M487.52,824.29l-11.43-6.42c-6.46-3.62-110.9,9-124,10.11s-23.21,5.26-23.25.67-.56-79.35,4.08-91.11c3.71-9.42,5.88-34.15,6.49-45.35,4-4.05,13.37-12.87,18.61-15.68,6.55-3.51,37.63-24,41.57-26.31s35.73-21.75,39.45-24.89,10.07-13.29,13.76-21c2.95-6.19,22.49-42,31.9-59.17,4.41-8.63,14-26.78,17-30.3,3.78-4.41,7.72-6.77,14.7-8.73s32.42-11.2,36.09-13.06c.57-.29,1.91-1.17,3.78-2.45m-68.79,333.7,4.08,74.8m-4.08-74.8c4.2-7.88,13.08-24,15-25.55,2.39-1.93,17.4-17,22.45-21.37s14.89-12.54,17.74-18.78,4.58-10.49,2.45-19.52-8.43-47.85-8.75-51.94S543,666,546.58,660.83s24.51-11.06,26.12-12.77,20.95-32.66,22.9-36.13,17.32-26.21,17.62-32.57c.25-5.09-.32-14.55-.64-18.65l6.92-27.47c-1.66-.93-7.07-3.7-15.47-7.37s-35.31-25.05-47.72-35.28m220.3-82.39c-16.83,5.78-38.11,13-41.86,14C728.54,424,674.46,440,663.1,442.76s-60.42,20.3-66.34,21.55c-5,1.05-30.4,19.42-40.45,26.28m220.3-82.39c11-3.79,20.13-7,21.16-7.43ZM722.82,823.11c4.41.29,14.3,1.75,18.63,5.23,5.41,4.34,14.57,10.13,24.25,10.35s31.63-5.12,51,5.76l24.85,13.95c-3.79,8.32-32,77.1-31.2,77.54m35.94-86c6.33-4.29,13.31-6.25,18.55-14.41s6.71-17.79,10-17.89-3.34-37.14,2.54-53.43,9.28-23.53,9.56-24m0,0c.28-.5,40.87,36.65,40.5,44.29M887,740.2c-3.46-2.38-9.68-8.83-6.91-15.64,2.67-6.54,18.25-43,25.46-60.82m22,120.75c-.29,6.1.46,22.46.88,29.88Zm-22-120.75c2.16-5.33,3.57-9,3.67-9.7Zm106,37.31c2.23-18.35,8.2-57.71,14.23-68.44,7.52-13.41,10.47-16.33,19.78-18.94,6.49-1.82,32.8-8.79,50-13.3m0,0,6.9-1.82Z"/><path class="cls-4" d="M3,714.43c113.81,26.34,359.42,38.05,371.23,30.05,3.72-2.52,20.1-13.9,42.57-29.64M752.17,566.22c-3.7-2.73-53.31-.54-67.23-8.36s-66.56-28.21-66.58-22.35S612,567.84,607,576.78c-.93,1.65-9,8.12-21.66,17.63m166.86-28.19c3.7,2.73-2,36.11-3,42.69m3-42.69c2.14-14.68,6.34-44.62,6-46.87-.38-2.83,3.94-18.68,18-50.63s14.79-32.18,21.64-58.36,9.1-111.75,9.5-114.79.49-59.13.33-61.18-.57-9.46,4.08-10.76,44.59-20,65.73-19.26,59.46.08,72.19.7,52.12-6.65,67.24-8,75.43-8.58,91.61-10.6,109-12.57,122.68-14.71,112.65-13.15,123.45-14.92,98.31-12.07,110.83-12.22,72.69-15.35,89-9.46m-802.28,431c39.69,17,123.66,55.31,142.07,71.91,23,20.75,37.11,41.06,54.57,49.56,14,6.79,104.55,23.42,148.09,30.89M749.13,608.91c-.86,5.26-109.57-7.48-163.82-14.5m163.82,14.5L708.44,920.67M585.31,594.41C547,623.19,466.79,679.82,416.8,714.84m0,0c3.2,1.8,9.3,7.58,8.08,16.29-1.54,10.89.72,142,8.22,150.76M1554.45,135.2c13,4.71,60.15,17.88,82.07,23.87Z"/></g></g></g></svg>