<?xml version="1.0" encoding="utf-8"?>
<!-- Generator: Adobe Illustrator 23.0.3, SVG Export Plug-In . SVG Version: 6.00 Build 0)  -->
<svg version="1.1" xmlns="http://www.w3.org/2000/svg" xmlns:xlink="http://www.w3.org/1999/xlink" x="0px" y="0px"
	 viewBox="0 0 500 500" style="enable-background:new 0 0 500 500;" xml:space="preserve">
<style type="text/css">
	.st0{display:none;}
	.st1{display:inline;fill:#F9FBFC;}
	.st2{clip-path:url(#SVGID_2_);fill:url(#SVGID_3_);}
	.st3{fill:none;stroke:#3EBFB4;stroke-width:2;stroke-miterlimit:10;}
	.st4{fill:#FFFFFF;}
	.st5{fill:#3EBFB4;}
	.st6{fill:#F9FBFC;}
	.st7{font-family:'FiraSans-Book';}
	.st8{font-size:11.2366px;}
	.st9{fill:#F24C88;}
</style>
<g id="BACKGROUND" class="st0">
	<rect class="st1" width="500" height="500"/>
</g>
<g id="OBJECTS">
	<g>
		<g>
			<defs>
				<polygon id="SVGID_1_" points="251,80.4 9.6,220.6 252.5,360.9 493.9,220.6 				"/>
			</defs>
			<clipPath id="SVGID_2_">
				<use xlink:href="#SVGID_1_"  style="overflow:visible;"/>
			</clipPath>
			
				<radialGradient id="SVGID_3_" cx="232.0097" cy="219.0453" r="183.8919" gradientTransform="matrix(1 0 0 0.576 0 92.8789)" gradientUnits="userSpaceOnUse">
				<stop  offset="0" style="stop-color:#D1D3D4"/>
				<stop  offset="1" style="stop-color:#F9FBFC"/>
			</radialGradient>
			<path class="st2" d="M267.5,290.9l8.6,5l8-4.7l-7.4-5.7L267.5,290.9z M224.7,249.8l-14.8-8.5l-11,6.4l14.8,8.5L224.7,249.8z
				 M230.9,265.3l10.2-5.9l-10.3-5.9L210.9,265L230.9,265.3z M112.4,270.6l-7.5,4.4l10.9,6.3l7.5-4.4L112.4,270.6z M240,281.8
				l11.4,6.6l7.9-4.6l-11.4-6.6L240,281.8z M53.9,247.6l-8.9-5.2l-6.7,3.9l8.9,5.2L53.9,247.6z M240.8,155.7l8.4,4.9l5.3-2.1
				l-9.3-5.4L240.8,155.7z M232.8,137.3l-7.6,5.8l4.1,1.8l7.6-5.8L232.8,137.3z M258.5,157.5l9.9-3.5l-12.4-7.2l-7.9,4.6
				L258.5,157.5z M249.2,145.8l-7.1-4.1l-8.9,5.2l7.1,4.1L249.2,145.8z M68.7,262.3l10.9,6.3l7.8-4.5l-10.9-6.3L68.7,262.3z
				 M459,239.9l1.9,0.1c1.4-9.1-4.9-15.4-12-19.5c-5.2-3-10.8-4.8-14.1-5.7l11.6-6.3l27.4-9.9l-2.1-1.9l-26.5,9.6l-45.7-18.2
				l28.3-16.4l-4.8-2.8l-9.8,5.7l0.8-1l-56.6-15.1l-0.8,1c-0.7-4.9-4-9.6-9.9-13.5l1.4,0.8l18.3-10.6l-2.8-1.6l-18.2,10.6
				c-0.2-0.1-0.4-0.2-0.6-0.3l-23.9-13.8l18.2-10.6l-2.8-1.6l-18.2,10.6L285,110.3l-10.1-29.2l-6.7,0.8l2.7,7.8l-31.2-2.9
				l-30.6,19.4l-17.8-13.9l-5.5,2.3l9.5,7.4l-1.6-0.7l-27.3,22.1l-11.3-10.2l-3.3,1.2l23.5,21.2l1.6-0.6
				c-12.5,8.7-18.7,17.4-21.3,21.9l-38.3-22.1l-4.8,2.8l17.7,10.2l-15.3,8.9l11.8,31.7l-50.6,9.5l-12.5-29.8l-9.5,1.3l4.4,10.5
				l-1.4-0.8l-25.4,14.7l-6.4,17.7L-10,232.1l2.8,1.6l35.4-20.6l16.8-1l8.8,23.3l-52.2,1.8l0.4,3.4l70.2-2.3l-1.4,0.4l8.2,8.5
				l-35.6,15.5l2.3,1.8l35.1-15.3l3.7,3.9c1.7,1.8,3.8,3.4,6.2,4.8c7.7,4.5,18.6,6.8,29.8,6.2l15-0.8l-9,23.6l-57.9-12.9l-3.5,5.3
				l125.9,28.1l12.1,7l-19,11.1l-40-5.5l-0.9,2.2l40.6,5.6l26.2,15.1l-14.2,8.2l2.8,1.6l14.2-8.2l22,12.7l35.3-3.2l-0.3-1.1l7.5,4.4
				l6.9-4l-17.9-10.3l27.5-16l17.9,10.3l4.1-2.4l-10-5.8l1.7,0.6l29.4-28.3l53.8-17.2l-0.9-1l11.4,3.3l4.4-5l-18.3-5.3l-21.9-47.9
				l14.1-3.2l-0.7-1.1l14.1,13.2l80.1,7.7l0.9-3.3L459,239.9z M411.8,175.5l-24.6,14.3c-4.2,2.4-9.1,4.4-14.5,5.7l15-26.5
				L411.8,175.5z M356.7,160.8l27.4,7.3l-15.7,27.6l1.8,0.4c-4.5,1-9.2,1.5-14,1.7c-12.3,0.3-24.4-2.1-33.5-6.8L345,178
				C353.1,173.3,357,167,356.7,160.8z M286.9,251.5l-1.8-39.8l62.8,55.9l-19.8,9.3l1.4-0.8L286.9,251.5z M326.7,277.6l-28.3,13.3
				l-45.1-37.3l30.9-0.5L326.7,277.6z M227.4,293l6.7-20.1l-1.9-0.2l36.8-0.1l25.5,21.1l-6.4,11.3l0.6-1.1L227.4,293z M155.2,211.4
				l17.8-18l34.7,10.7l0.9-1l8.5,30.3c-8.5-2-17.8-3-27-2.6l-15.9,0.5l1.6-0.6L155.2,211.4z M219,154.3l7.7,3.8l4.4,28.2l-22,1.5
				l1.9-0.2l-9.7-28.1l18.4-4.2L219,154.3z M216.2,145.4l17.9-13.1l6.5,5.1c0.7,0.6,1.5,1.1,2.3,1.5c5.6,3.3,13.8,4.7,21.8,3.8
				l4.7-0.6l9.9,12.6l-1-1l-40.4,13.5l-1.9-12l-21.3-10.6L216.2,145.4z M213.2,144l-23.8-11.8c8.7-4.9,18.5-8.8,29.5-11.8l14,10.9
				l-1.5-0.7L213.2,144z M206.6,186.4l-34.9-20.2l26-5.9L206.6,186.4z M205.3,191.1l2.9,10.5l-33.3-10.3l11.2-11.3L205.3,191.1z
				 M190.4,234c10.1-0.3,20.1,0.9,29,3.6c4.9,1.5,9.3,3.4,13.2,5.7c2.3,1.3,4.4,2.8,6.2,4.3l26.1,21.6l-59.6,0.2l-58.6-33.8
				L190.4,234z M221.1,226.8l27.9,2.4l0.9,21.6l-6.2-5.1c-2-1.7-4.3-3.3-6.8-4.7c-4-2.3-8.5-4.3-13.4-5.9L221.1,226.8z M253.8,251.3
				l-0.9-21.8l29.2,2.5l0.8,18.9L253.8,251.3z M221.1,224.5l-0.3,1.1l-3.3-11.6l63.6-2.9l0.8,18.6L221.1,224.5z M217.1,211.7
				l0.2,1.1l-5.9-21.3l47.7-3.2l22.9,20.4L217.1,211.7z M259.7,184.4l-18.9,1.3l-2.7-17.1l1,1l41.1-13.7l20.2,25.9L259.7,184.4
				L259.7,184.4z M297.1,169.5l1.4,0.8l23-13.4l24.5,14.2l1.4-0.8c-1.6,1.9-3.8,3.7-6.6,5.3l-22.3,13l-11.8-6.8L297.1,169.5z
				 M340.7,147.3c10.2,5.9,12.7,14.6,7.6,21.9l-46.6-26.9l15.1-8.8L340.7,147.3z M290.3,125.6l-3.2-9.4l27,15.6l-17.9,10.4l22.6,13
				l-22.5,13.1l-21.1-27C286,139,292.6,132.4,290.3,125.6z M275,101.7l8.5,24.7c1.8,5.3-4.1,10.6-13.3,11.6l-6.9,0.8
				c-5.7,0.7-11.5-0.4-15.6-2.7c-0.6-0.3-1.1-0.7-1.7-1.1l-15.8-12.3l1.3,0.9L275,101.7z M272.1,93.2l2.5,7.2l-1.3-0.9l-21.6,10.9
				L244,90.6L272.1,93.2z M240.3,91.4l8,20.7l-19.2,9.7l-16.5-12.9L240.3,91.4z M168.7,125.5l27.8-22.5l18.8,14.7
				c-12.7,3.5-24.1,8.3-33.7,14.3c-1.2,0.7-2.3,1.5-3.4,2.2L168.7,125.5z M182.8,136.3l34.6,17.2l-47.9,10.8l0.7,1.1l-9.8-5.7
				C162.1,156.2,168.3,146.1,182.8,136.3z M119.3,157.4l13.8-8l51.6,29.8l-1.7-0.6l-30.1,30.5l-21.9-20.4L119.3,157.4z M128.3,190.5
				l43.7,40.8l-30.6,1.1l-0.6,0l-3.3,0.1l-22.1,0.8l1.9-0.2l-13.5-37.9L128.3,190.5z M77.3,200.1l22.7-4.3l13.3,37.5l-21.9,0.8
				l-14.7-35L77.3,200.1z M29.7,210.8l5.7-15.8l23.7-13.8l11.4,27.1L29.7,210.8z M55.7,235.3l1.9-0.2l-8.8-23.2l22.4-1.4l-0.2-1.1
				l10.5,25.1L55.7,235.3z M93.5,256.2c-2.2-1.2-4-2.7-5.6-4.3l-13.3-13.8l59.5-2l6,3.5l-37.6,20.3C99.2,259,96.2,257.7,93.5,256.2z
				 M120.3,261.8c-4.7,0.3-9.4-0.1-13.8-0.9l36.4-19.7l51.7,29.9l-13,7.6l1.1-0.9l-44-16.9L120.3,261.8z M128.5,287.3l1.9,0.2
				l9.1-23.7l40.7,15.7l-24,14L128.5,287.3z M196.7,302.5l-30.5-6.8l39.4-22.9l24.8-0.1l-13.8,41.2L196.7,302.5z M212.9,341.1
				l-25.2-14.6l18.4-10.7l25.2,14.6L212.9,341.1z M268.1,351.7l-31.9,2.9l-20.6-11.9l18.4-10.7L268.1,351.7z M262.2,340.3
				l-44.1-25.4l1.9,0.2l6.7-19.9l60.8,10.8l-7.3,12.9l9.5,5.5L262.2,340.3z M304.4,328.1L286.9,318l13.5-23.6l-0.5,1.1l32.8,5.5
				L304.4,328.1z M334.6,299l-32.5-5.5l47.5-22.3l10.6,3.1L334.6,299z M387.7,282.4L341,297.3l22.7-21.9l-1.7-0.6L387.7,282.4z
				 M382.7,274.6l-29.5-8.6l-0.3-0.1L265.5,188l22.6-1.5l-1.5,0.7l61.5,44.8l13.8-3.2L382.7,274.6z M349.3,229.3l-59-42.9l13.3-0.9
				l12.3,7.1c10.4,6,24.6,9.3,39.3,9.1l22.6,21.1L349.3,229.3z M361.7,201.4c11.4-1,22.1-4,30.3-8.8l6.3-3.6l-1.1,0.9l45,17.9
				l-46.8,25.1L361.7,201.4z M457.1,239.7l-58.2-5.6l32.9-17.7c2.4,0.6,8.7,2.3,14.4,5.6C452.5,225.8,458.3,231.5,457.1,239.7z
				 M232.8,291.4l8.9,1.7l4.7-2.7l-5.9-3.4L232.8,291.4z M103.9,269l-7.4-4.2l-11.1,6.4l7.4,4.2L103.9,269z M430.5,226.9l5.7,3.3
				l7.3-4.3l-5.7-3.3L430.5,226.9z M140.7,306.1l14.4,8.3l13.7-8l-20.4-4.8L140.7,306.1z M396.4,255.8l11.9,6.8l4.6-2.6l-11.9-6.8
				L396.4,255.8z M191.8,316.4l-5-2.9l-7.5,4.4l5,2.9L191.8,316.4z M66.2,244.8l-11.9,6.9l4.1,2.4l13.6-6L66.2,244.8z M413.6,243.3
				l-16.1-1.9l-13,7.5l9.7,5.6L413.6,243.3z M165.5,314.5l5.3,3.1l12.4-7.2l-7.3-1.9L165.5,314.5z M105.9,187.4l10.4-6l-3.4-8.1
				l-15.7,9.1L105.9,187.4z M111,167.3l-3.8-9.9l-12.7,7.4l10.5,6L111,167.3z M371.8,235.1l9.7,5.6l5.9-3.4l-9.7-5.6L371.8,235.1z
				 M104.2,174.3l-13.1-7.6l-15.1,8.8l6.3,11.5L104.2,174.3z M199.3,260.2l6.3-3.7L188,246.4l-6.3,3.7L199.3,260.2z M301.5,247.9
				l14.6,12.2l9.7-3.9L311.2,244L301.5,247.9z M348.8,192.1l11.3-6.6l-9.8-5.7l-11.3,6.6L348.8,192.1z M44,226.1l-5.2-3l-9,5.3
				l5.2,3L44,226.1z M13.5,224.3l6.3,3.6l11-6.4l-6.3-3.6L13.5,224.3z M413.6,251.6l10.5,6.1l8.2-4.8l-10.5-6.1L413.6,251.6z
				 M402.6,269.2l-5.4-3.1l-6.4,3.7l5.4,3.1L402.6,269.2z M362.9,192.5l4.7-2.7l-3.8-2.2l-4.7,2.7L362.9,192.5z M375.6,169.2
				l-5.2-1.1l-6.4,10l5.2,1.1L375.6,169.2z M222.7,197.7l10.9,6.3l4.9-2.9l-10.9-6.3L222.7,197.7z M157.6,188.1l10.5-6.1l-9.6-5.6
				l-10.5,6.1L157.6,188.1z M126,215.2l10.9-6.3l-6.1-3.5l-10.9,6.3L126,215.2z M155.5,168.6l-20-11.6l-5.4,3.1l20,11.6L155.5,168.6
				z M147.6,223.3l6.3-3.7l-8.9-7.8l-8.6,5L147.6,223.3z M122.6,224.9l7.9,4.6l20.5-0.8l-17.5-10.1L122.6,224.9z M261.1,121.8
				l-7.4-5.2l-13.3,6.3l7.4,5.2L261.1,121.8z M294,316l11.7,6.8l5.3-5.4l-13.3-7.7L294,316z M276,116l-3.2-6.8L268,110l3.2,6.8
				L276,116z M146.9,197.7l5,2.9l8.3-4.8l-5-2.9L146.9,197.7z M318.3,308.4l-9.4-5.4l-5.9,3.4l9.4,5.4L318.3,308.4z M178.9,248.4
				l6.3-3.7l-7.6-4.4l-6.3,3.7L178.9,248.4z M36.5,206.5l14.3-0.3l1.9-1.1l-6.9-4L36.5,206.5z M53.5,196.6l-4,2.3l8.2,4.7l4-2.3
				L53.5,196.6z M272.8,314l-12-6.9l-5.3,3.1l12,6.9L272.8,314z M237.8,321.5l17.5,10.1l6.8-3.9l-17.5-10.1L237.8,321.5z
				 M260.1,321.4l11.5,6.6l4-2.3l-11.5-6.6L260.1,321.4z M58.5,192.2l-6.2-3.6l-10,5.8l6.2,3.6L58.5,192.2z M127.4,203.4l-8.2-4.7
				l-5.3,3.1l8.2,4.7L127.4,203.4z M254.1,304.3l-14-2.9l-8.2,4.8l9.5,5.5L254.1,304.3z M263.7,206.2l4-2.3l-3.4-2l-4,2.3
				L263.7,206.2z M248.3,222.5l12.5,1l1.1-5l-12.5-0.9L248.3,222.5z M257.5,128l5.2,3.7l11.9-5.7l-5.2-3.7L257.5,128z M382.1,204.7
				l-6.2,3.6l13.4,7.7l6.2-3.6L382.1,204.7z M249.6,199.7l4.6,2.6l7.3-4.2l-4.6-2.6L249.6,199.7z M227.1,221.1l9.1,0.7l0.7-3.1
				l-9.1-0.7L227.1,221.1z M416.6,230.3l4,2.3l5.3-3.1l-4-2.3L416.6,230.3z M416.3,202.7l-14.8,8.6l6.3,3.6l14.8-8.6L416.3,202.7z
				 M394.9,224.8l3.1,1.8l7.2-4.2l-3.1-1.8L394.9,224.8z M344,213.1l10.2,5.9l5.6-3.3l-10.2-5.9L344,213.1z M316.1,147.2l8.6-5
				l-5.4-3.1l-8.6,5L316.1,147.2z M413,200.7l-11.5-6.6l-6.5,3.8l11.5,6.6L413,200.7z M339.6,159l5.4-3.1l-16.7-9.6l-5.4,3.1
				L339.6,159z M310.4,154.8l-7.3-4.2l-9.5,5.5l7.3,4.2L310.4,154.8z M336.3,169.1l-13.1-7.6l-3.3,1.9l13.1,7.6L336.3,169.1z
				 M332.9,175.2l-8.1-4.7l-6.6,3.9l8.1,4.7L332.9,175.2z M314.1,175.1l-5.7-3.3l-3.6,2.1l5.7,3.3L314.1,175.1z"/>
		</g>
		<g>
			<path class="st3" d="M55.6,237.1l111.9-4c0,0,42-3.3,52.1,2.9l-12.2-46.8l96.6-6c0,0,15.1,10.6,29.4,14
				c14.3,3.5,39.3,5.4,61.5-9.2"/>
			<g>
				<path class="st4" d="M396.3,190.5c-0.9,0-1.7-0.1-2.5-0.4c-0.3-0.1-0.6-0.2-0.8-0.4c-1-0.6-1.6-1.4-1.7-2.3
					c-0.1-0.8,0.2-1.6,0.9-2.2c0.9-0.8,2.4-1.3,4.1-1.3c0.9,0,1.7,0.1,2.5,0.4c0.3,0.1,0.6,0.2,0.8,0.4c1,0.6,1.6,1.4,1.7,2.3
					c0.1,0.8-0.2,1.6-0.9,2.2C399.4,190.1,398,190.5,396.3,190.5C396.3,190.5,396.3,190.5,396.3,190.5z"/>
				<path class="st5" d="M396.3,184.9c0.7,0,1.5,0.1,2.2,0.4c0.2,0.1,0.5,0.2,0.7,0.3c1.3,0.8,1.6,2,0.6,2.9
					c-0.8,0.7-2.1,1.1-3.4,1.1c-0.7,0-1.5-0.1-2.2-0.4c-0.2-0.1-0.5-0.2-0.7-0.3c-1.3-0.8-1.6-2-0.6-2.9
					C393.7,185.3,395,184.9,396.3,184.9 M396.3,182.9c-1.9,0-3.6,0.6-4.7,1.6c-0.9,0.8-1.4,1.9-1.3,3.1c0.1,1.2,0.9,2.3,2.2,3
					c0.3,0.2,0.6,0.3,1,0.5c0.9,0.3,1.9,0.5,2.9,0.5c1.9,0,3.6-0.6,4.7-1.6c0.9-0.9,1.4-1.9,1.3-3.1c-0.1-1.2-0.9-2.3-2.2-3
					c-0.3-0.2-0.6-0.3-1-0.5C398.3,183.1,397.3,182.9,396.3,182.9L396.3,182.9z"/>
			</g>
			<g>
				<path class="st4" d="M55.6,240.5c-0.9,0-1.7-0.1-2.5-0.4c-0.3-0.1-0.6-0.2-0.8-0.4c-1-0.6-1.6-1.4-1.7-2.3
					c-0.1-0.8,0.2-1.6,0.9-2.2c0.9-0.8,2.4-1.3,4.1-1.3c0.9,0,1.7,0.1,2.5,0.4c0.3,0.1,0.6,0.2,0.8,0.4c1,0.6,1.6,1.4,1.7,2.3
					c0.1,0.8-0.2,1.6-0.9,2.2C58.8,240,57.3,240.5,55.6,240.5L55.6,240.5z"/>
				<path class="st5" d="M55.6,234.8c0.7,0,1.5,0.1,2.2,0.4c0.2,0.1,0.5,0.2,0.7,0.3c1.3,0.8,1.6,2,0.6,2.9
					c-0.8,0.7-2.1,1.1-3.4,1.1c-0.7,0-1.5-0.1-2.2-0.4c-0.2-0.1-0.5-0.2-0.7-0.3c-1.3-0.8-1.6-2-0.6-2.9
					C53,235.2,54.3,234.8,55.6,234.8 M55.6,232.8c-1.9,0-3.6,0.6-4.7,1.6c-0.9,0.8-1.4,1.9-1.3,3.1c0.1,1.2,0.9,2.3,2.2,3
					c0.3,0.2,0.6,0.3,1,0.5c0.9,0.3,1.9,0.5,2.9,0.5c1.9,0,3.6-0.6,4.7-1.6c0.9-0.9,1.4-1.9,1.3-3.1c-0.1-1.2-0.9-2.3-2.2-3
					c-0.3-0.2-0.6-0.3-1-0.5C57.6,233,56.6,232.8,55.6,232.8L55.6,232.8z"/>
			</g>
		</g>
		<g>
			<polygon class="st5" points="221.5,158.1 296.3,115 296.3,91.5 221.5,134.7 			"/>
			<g>
				<text transform="matrix(1 -0.5774 0 1 244.288 137.3218)" class="st6 st7 st8">9 km Left</text>
				<polygon class="st6" points="232.3,144 227.3,149.3 232.3,132.2 237.3,143.5 				"/>
			</g>
		</g>
		<path class="st9" d="M205.7,149.8c-1.9,1.1-3.4,3.7-3.4,5.9s1.5,3,3.4,2c1.9-1.1,3.4-3.7,3.4-5.9
			C209.1,149.6,207.5,148.8,205.7,149.8z M205.7,139.6c-6.4,3.7-11.6,12.7-11.6,20c0,1,0.2,2.1,0.5,3.3c1,4.1,3.5,9.5,5.7,14
			c2.2,4.5,4.2,8,4.2,8l1.2,2.2l1.2-3.6c0,0,2.6-7.5,5.1-15.9c1.3-4.2,2.6-8.6,3.5-12.3c0.5-1.9,0.9-3.6,1.2-5.2
			c0.3-1.5,0.5-2.8,0.5-3.8C217.2,138.9,212.1,135.9,205.7,139.6z M214.1,150.9c-0.9,4.8-3.4,13-5.5,20c-1.1,3.5-2.1,6.6-2.9,8.9
			c0,0,0,0,0,0.1c-1.2-2.2-3.1-5.8-4.8-9.6c-1.1-2.4-2.1-4.8-2.9-7c-0.4-1.1-0.7-2.1-0.9-3c-0.2-0.9-0.3-1.7-0.3-2.2
			c0-2.8,1-5.9,2.6-8.7c1.6-2.8,3.8-5.2,6.3-6.6c2.4-1.4,4.7-1.5,6.3-0.6c1.6,0.9,2.6,2.9,2.6,5.7
			C214.5,148.4,214.4,149.5,214.1,150.9z"/>
	</g>
</g>
<g id="Designed_By_Freepik" class="st0">
</g>
</svg>
